<?xml version="1.0" encoding="UTF-8" standalone="no"?>
<!-- Created with Inkscape (http://www.inkscape.org/) -->

<svg
   width="793.70081"
   height="1122.5197"
   viewBox="0 0 210 297"
   version="1.1"
   id="svg8"
   inkscape:version="1.1 (c4e8f9e, 2021-05-24)"
   sodipodi:docname="alp_cv_210720.svg"
   xmlns:inkscape="http://www.inkscape.org/namespaces/inkscape"
   xmlns:sodipodi="http://sodipodi.sourceforge.net/DTD/sodipodi-0.dtd"
   xmlns="http://www.w3.org/2000/svg"
   xmlns:svg="http://www.w3.org/2000/svg"
   xmlns:rdf="http://www.w3.org/1999/02/22-rdf-syntax-ns#"
   xmlns:cc="http://creativecommons.org/ns#"
   xmlns:dc="http://purl.org/dc/elements/1.1/">
  <defs
     id="defs2">
    <path
       fill="#ffff00"
       d="M 0,-1 0.587785,0.809017 -0.951057,-0.309017 H 0.951057 L -0.587785,0.809017 Z"
       id="s" />
    <clipPath
       clipPathUnits="userSpaceOnUse"
       id="clipPath5230">
      <circle
         r="1852.4994"
         cy="2099.3599"
         cx="2957.4553"
         id="circle5232"
         style="opacity:1;vector-effect:none;fill:#242424;fill-opacity:1;stroke:none;stroke-width:27.8871;stroke-linecap:round;stroke-linejoin:round;stroke-miterlimit:4;stroke-dasharray:none;stroke-dashoffset:0;stroke-opacity:1" />
    </clipPath>
    <clipPath
       clipPathUnits="userSpaceOnUse"
       id="clipPath5238">
      <circle
         style="opacity:1;vector-effect:none;fill:#242424;fill-opacity:1;stroke:none;stroke-width:0.060215;stroke-linecap:round;stroke-linejoin:round;stroke-miterlimit:4;stroke-dasharray:none;stroke-dashoffset:0;stroke-opacity:1"
         id="circle5240"
         cx="5.999999"
         cy="5.0000062"
         r="4" />
    </clipPath>
    <clipPath
       clipPathUnits="userSpaceOnUse"
       id="clipPath5274">
      <circle
         style="opacity:1;vector-effect:none;fill:#242424;fill-opacity:1;stroke:none;stroke-width:0.154515;stroke-linecap:round;stroke-linejoin:round;stroke-miterlimit:4;stroke-dasharray:none;stroke-dashoffset:0;stroke-opacity:1"
         id="circle5276"
         cx="9.9422283"
         cy="9.9600277"
         r="9.9331045" />
    </clipPath>
    <clipPath
       clipPathUnits="userSpaceOnUse"
       id="clipPath5367">
      <circle
         r="5"
         cy="5.0000048"
         cx="6.7937498"
         id="circle5369"
         style="opacity:1;vector-effect:none;fill:#242424;fill-opacity:1;stroke:none;stroke-width:0.0367187;stroke-linecap:round;stroke-linejoin:round;stroke-miterlimit:4;stroke-dasharray:none;stroke-dashoffset:0;stroke-opacity:1" />
    </clipPath>
    <clipPath
       clipPathUnits="userSpaceOnUse"
       id="clipPath5372">
      <circle
         r="1736.7181"
         cy="2099.9998"
         cx="3117.1702"
         id="circle5374"
         style="opacity:1;vector-effect:none;fill:#242424;fill-opacity:1;stroke:none;stroke-width:34.2451;stroke-linecap:round;stroke-linejoin:round;stroke-miterlimit:4;stroke-dasharray:none;stroke-dashoffset:0;stroke-opacity:1" />
    </clipPath>
    <clipPath
       clipPathUnits="userSpaceOnUse"
       id="clipPath5377">
      <circle
         r="7.5"
         cy="7.5528212"
         cx="8.2500725"
         id="circle5379"
         style="opacity:1;vector-effect:none;fill:#242424;fill-opacity:1;stroke:none;stroke-width:0.112903;stroke-linecap:round;stroke-linejoin:round;stroke-miterlimit:4;stroke-dasharray:none;stroke-dashoffset:0;stroke-opacity:1" />
    </clipPath>
    <clipPath
       clipPathUnits="userSpaceOnUse"
       id="clipPath7273">
      <circle
         style="opacity:1;vector-effect:none;fill:#242424;fill-opacity:1;stroke:none;stroke-width:0.111024;stroke-linecap:round;stroke-linejoin:round;stroke-miterlimit:4;stroke-dasharray:none;stroke-dashoffset:0;stroke-opacity:1"
         id="circle7275"
         cx="40.422016"
         cy="673.64838"
         r="15.118111" />
    </clipPath>
    <clipPath
       clipPathUnits="userSpaceOnUse"
       id="clipPath4761">
      <circle
         style="opacity:1;vector-effect:none;fill:#1581a8;fill-opacity:1;stroke:none;stroke-width:0.6267;stroke-linecap:round;stroke-linejoin:round;stroke-miterlimit:4;stroke-dasharray:none;stroke-dashoffset:0;stroke-opacity:1"
         id="circle4763"
         cx="31.92944"
         cy="28.309999"
         r="22.5" />
    </clipPath>
  </defs>
  <sodipodi:namedview
     id="base"
     pagecolor="#ffffff"
     bordercolor="#666666"
     borderopacity="1.0"
     inkscape:pageopacity="0"
     inkscape:pageshadow="2"
     inkscape:zoom="1.973213"
     inkscape:cx="101.10414"
     inkscape:cy="901.32184"
     inkscape:document-units="mm"
     inkscape:current-layer="layer1"
     showgrid="false"
     inkscape:window-width="1440"
     inkscape:window-height="855"
     inkscape:window-x="0"
     inkscape:window-y="23"
     inkscape:window-maximized="1"
     inkscape:snap-global="true"
     borderlayer="true"
     inkscape:pagecheckerboard="false"
     inkscape:snap-bbox="true"
     inkscape:snap-bbox-midpoints="true"
     showguides="true"
     inkscape:guide-bbox="true"
     inkscape:snap-page="true"
     inkscape:bbox-paths="true"
     inkscape:snap-bbox-edge-midpoints="true"
     inkscape:bbox-nodes="true"
     inkscape:object-paths="false"
     units="px" />
  <metadata
     id="metadata5">
    <rdf:RDF>
      <cc:Work
         rdf:about="">
        <dc:format>image/svg+xml</dc:format>
        <dc:type
           rdf:resource="http://purl.org/dc/dcmitype/StillImage" />
      </cc:Work>
    </rdf:RDF>
  </metadata>
  <g
     inkscape:label="Layer 1"
     inkscape:groupmode="layer"
     id="layer1">
    <g
       id="g1804"
       inkscape:export-filename="/Users/silver/Desktop/hobbies.png"
       inkscape:export-xdpi="771.59558"
       inkscape:export-ydpi="771.59558">
      <path
         id="circle13761"
         style="vector-effect:none;fill:#3d98b7;fill-opacity:0.521994;stroke:none;stroke-width:1.00177;stroke-linecap:round;stroke-linejoin:round;stroke-miterlimit:4;stroke-dasharray:none;stroke-dashoffset:0;stroke-opacity:1"
         d="m 151.4082,859.76758 a 26.766401,26.766401 0 0 0 -26.76758,26.76758 26.766401,26.766401 0 0 0 26.76758,26.76562 26.766401,26.766401 0 0 0 26.76563,-26.76562 26.766401,26.766401 0 0 0 -26.76563,-26.76758 z m 7.39844,15.26172 c 0.0954,-0.002 0.18048,0.0229 0.26367,0.0781 0.20164,0.12775 0.23242,0.44151 0.23242,2.29688 0,1.18106 -0.0469,2.31837 -0.10546,2.52734 -0.14227,0.50812 -1.01389,1.08463 -1.63672,1.08398 -1.00036,-10e-4 -1.68103,-0.72787 -1.88867,-2.01367 -0.19098,-1.18246 -1.4976,-1.89749 -2.5293,-1.38476 -0.9454,0.46979 -1.07947,0.8008 -1.14258,2.82617 l -0.0547,1.79492 4.72461,0.0684 c 3.93442,0.0586 4.85515,0.11174 5.49414,0.31055 3.57463,1.11541 5.90884,4.4157 5.67578,8.02734 -0.137,2.12323 -0.87601,3.70137 -2.41796,5.16602 -1.6279,1.54639 -3.29088,2.23047 -5.42188,2.23047 -1.93422,0 -3.63043,-0.60805 -5.0918,-1.82422 -0.44687,-0.37191 -0.99051,-0.92762 -1.20898,-1.23633 l -0.39649,-0.5625 h -1.88476 -1.88281 l -0.39844,0.5625 c -0.88307,1.24796 -2.65456,2.40404 -4.36524,2.84961 -1.06455,0.27704 -2.97366,0.25309 -4.02929,-0.0508 v -0.004 c -4.06992,-1.17146 -6.53143,-5.30099 -5.57617,-9.35351 0.63109,-2.67727 2.79791,-4.96361 5.50586,-5.8086 0.63875,-0.19918 1.55887,-0.25234 5.47851,-0.31055 l 4.70899,-0.0703 v -1.87109 c 0,-1.56862 0.0445,-1.95681 0.26757,-2.39063 0.98627,-1.91739 3.46857,-2.3087 4.92383,-0.77539 0.43306,0.45627 0.81055,1.28206 0.81055,1.77344 0,0.18595 0.11723,0.48368 0.26172,0.66211 0.23187,0.28649 0.30651,0.30447 0.6289,0.1582 l 0.36524,-0.16797 v -2.16797 -2.16992 l 0.35937,-0.16406 c 0.12824,-0.0584 0.23466,-0.0878 0.33008,-0.0898 z m -7.38867,8.46875 c -4.81947,0 -9.63836,0.0784 -10.25195,0.23828 -2.5215,0.6568 -4.55315,2.91205 -4.95313,5.49805 -0.70526,4.55984 3.72427,8.61365 8.16406,7.47265 1.64649,-0.42312 2.80417,-1.22135 4.19532,-2.89258 l 0.43359,-0.52148 h 2.45898 2.45704 l 0.5664,0.76758 c 0.98498,1.33334 2.30919,2.21389 3.97266,2.64453 1.52605,0.39511 2.9133,0.22157 4.51562,-0.56446 1.35158,-0.66292 2.3577,-1.67774 3.04883,-3.07617 0.53491,-1.08234 0.53516,-1.08598 0.53516,-2.83593 0,-1.73447 -0.006,-1.76076 -0.52149,-2.83985 -0.87389,-1.83012 -2.45646,-3.15416 -4.36914,-3.65234 -0.61359,-0.15988 -5.43249,-0.23828 -10.25195,-0.23828 z m 8.54101,3.09961 c 0.51227,0.004 0.82403,0.19537 1.06641,0.65039 0.26177,0.49149 0.18935,0.87518 -0.24609,1.31054 -0.42834,0.42834 -0.86875,0.50637 -1.33594,0.23829 -1.0612,-0.60866 -0.6859,-2.21079 0.51562,-2.19922 z m -17.11718,0.55273 c 0.43996,0 0.62109,0.42726 0.62109,1.46875 v 1.03125 l 1.15234,0.041 c 1.08192,0.0378 1.15442,0.0613 1.19727,0.36328 0.0809,0.57067 -0.2002,0.72461 -1.31445,0.72461 h -1.02344 l -0.041,1.06445 c -0.034,0.88411 -0.0867,1.09634 -0.31836,1.24805 -0.18943,0.12397 -0.35438,0.14111 -0.51367,0.0508 -0.17416,-0.0986 -0.26026,-0.41935 -0.33203,-1.24219 l -0.0977,-1.10937 -1.04883,-0.041 c -0.8184,-0.034 -1.0834,-0.0947 -1.20313,-0.28516 -0.11165,-0.17726 -0.11165,-0.31053 0,-0.48828 0.11974,-0.19049 0.38391,-0.25378 1.20117,-0.28515 l 1.04883,-0.041 0.0977,-1.07227 c 0.0977,-1.07848 0.23757,-1.42773 0.57422,-1.42773 z m 14.77734,1.86523 c 0.53947,0.032 1.04336,0.42532 1.05078,1.15235 0.0117,1.13722 -1.28026,1.60284 -2.01758,0.72656 -0.2914,-0.3462 -0.35636,-0.53654 -0.29101,-0.86328 0.14364,-0.71817 0.71834,-1.04761 1.25781,-1.01563 z m 4.83789,0.0254 c 0.44402,0.0124 0.88204,0.2105 1.01563,0.55859 0.34231,0.89212 -0.17348,1.73828 -1.06055,1.73828 -0.39275,0 -0.58457,-0.0961 -0.87695,-0.44336 h 0.002 c -0.41114,-0.4885 -0.40535,-1.06197 0.0156,-1.52734 0.21047,-0.23256 0.55895,-0.33584 0.9043,-0.32617 z m -11.48828,0.64453 c 0.15737,4.4e-4 0.3321,0.003 0.52539,0.008 1.2494,0.034 1.52432,0.0811 1.65234,0.28516 0.11188,0.17763 0.1119,0.31015 0,0.48828 -0.12839,0.20371 -0.40416,0.2507 -1.67578,0.2832 -1.06549,0.0302 -1.57515,-0.0119 -1.69531,-0.13281 -0.0944,-0.0941 -0.17187,-0.27741 -0.17187,-0.40625 0,-0.40638 0.26364,-0.5285 1.36523,-0.52539 z m 9.10547,1.77929 c 0.15291,0.005 0.31349,0.0363 0.47851,0.0996 0.27591,0.10583 0.63477,0.76942 0.63477,1.17383 0,0.40963 -0.73744,1.11133 -1.16602,1.11133 -0.19188,0 -0.54118,-0.16253 -0.77734,-0.36133 -0.92632,-0.77948 -0.24032,-2.05581 0.83008,-2.02344 z"
         transform="scale(0.26458333)" />
      <path
         id="circle13765"
         style="vector-effect:none;fill:#3d98b7;fill-opacity:0.521994;stroke:none;stroke-width:1.09301;stroke-linecap:round;stroke-linejoin:round;stroke-miterlimit:4;stroke-dasharray:none;stroke-dashoffset:0;stroke-opacity:1"
         d="m 79.666016,853.80664 a 29.204133,29.204133 0 0 0 -29.205078,29.20508 29.204133,29.204133 0 0 0 29.205078,29.20312 29.204133,29.204133 0 0 0 29.203124,-29.20312 29.204133,29.204133 0 0 0 -29.203124,-29.20508 z m 8.416015,14.28906 c 0.474813,-0.006 0.953397,0.0973 1.392578,0.31641 0.366161,0.18331 0.533282,0.30304 0.824219,0.5918 0.804631,0.79982 1.105468,1.9761 0.785156,3.06445 -0.09642,0.32731 -0.359326,0.82346 -0.574218,1.08398 -0.614661,0.74518 -1.603886,1.18373 -2.548828,1.12696 -1.441153,-0.0858 -2.582851,-1.0685 -2.882813,-2.47657 -0.06406,-0.30085 -0.06587,-0.92735 -0.002,-1.22461 0.133946,-0.62381 0.412051,-1.14063 0.845703,-1.57421 0.584832,-0.58486 1.368802,-0.89807 2.160156,-0.90821 z M 79.375,869.17773 c 0.551074,-0.0131 1.082726,0.0286 1.570312,0.12891 1.606092,0.33071 2.720984,1.26112 3.091797,2.58203 0.1903,0.6782 0.240709,1.7178 0.152344,3.12695 -0.09679,1.5402 -0.124466,2.21243 -0.101562,2.54102 l 0.02344,0.32227 h 0.5 c 0.275754,-5.7e-4 0.688424,-0.0164 0.916016,-0.0391 1.184553,-0.0911 1.285218,-0.0828 1.654297,0.10352 0.370545,0.18709 0.624645,0.48467 0.763671,0.89648 0.059,0.17462 0.06872,0.26727 0.05859,0.54102 -0.01209,0.30047 -0.02255,0.35479 -0.134765,0.58984 -0.200504,0.42199 -0.553747,0.71731 -1.001953,0.83399 -0.10715,0.0302 -0.247732,0.0488 -0.310547,0.0488 h -0.113282 l 0.01953,1.07421 0.01953,1.07227 0.302734,0.72266 c 0.166337,0.39722 0.307575,0.72933 0.314453,0.73632 0.0076,0.008 0.187841,-0.0384 0.402344,-0.0898 0.614748,-0.16214 0.943644,-0.20804 1.570313,-0.22656 1.214143,-0.0378 2.20012,0.16776 3.255859,0.68359 3.400679,1.65865 4.834081,5.74392 3.212891,9.1543 -0.894679,1.88213 -2.63021,3.28945 -4.636719,3.75781 -1.072328,0.25134 -2.240554,0.24044 -3.304688,-0.0332 -1.165069,-0.29518 -2.199259,-0.87494 -3.080078,-1.72461 -1.368291,-1.31981 -2.105469,-3.05511 -2.105469,-4.94922 0,-2.26004 1.058029,-4.32173 2.886719,-5.62109 0.253418,-0.18029 0.773277,-0.49798 0.861328,-0.52735 0.0378,-0.0113 -0.521619,-1.36718 -0.564453,-1.36719 -0.0291,0 -0.425944,0.43103 -2.58789,2.79883 -0.555341,0.60824 -1.419622,1.55279 -1.919922,2.09961 -2.381465,2.60281 -2.310575,2.52931 -2.447266,2.57032 -0.174349,0.0518 -0.346029,0.0121 -0.484375,-0.10547 -0.209046,-0.18407 -0.232691,-0.47613 -0.05664,-0.69727 0.06988,-0.0877 6.565781,-7.20976 7.216797,-7.91211 l 0.144532,-0.1543 -0.02344,-0.57421 -0.02148,-0.57422 -0.816407,-0.004 c -2.05017,-0.0113 -2.798513,-0.36878 -3.28125,-1.58008 -0.326966,-0.82034 -0.391073,-1.7701 -0.259765,-3.83398 0.03844,-0.60586 0.07117,-1.43796 0.07227,-1.84766 0.0016,-0.65261 -0.0072,-0.76613 -0.0625,-0.92578 -0.06017,-0.17159 -0.07596,-0.19086 -0.279296,-0.29101 -0.323793,-0.16328 -0.627603,-0.21649 -1.22461,-0.21876 -1.056918,-0.003 -2.16729,0.28406 -3.066406,0.79297 -0.5511,0.31257 -0.99168,0.72706 -1.078125,1.01563 -0.112252,0.37493 0.348171,0.93756 1.837891,2.25 1.465527,1.2912 2.079868,1.99559 2.541015,2.91601 0.237014,0.4729 0.273825,0.62671 0.253907,1.04688 -0.01965,0.43037 -0.0913,0.66716 -0.371094,1.24414 -0.498637,1.02864 -1.519244,2.35167 -3.177735,4.12109 l -0.636718,0.68164 0.0957,0.11329 c 0.303949,0.35829 0.424378,0.88727 0.310547,1.37109 -0.04225,0.17953 -0.04087,0.20749 0.01367,0.31445 0.13406,0.26608 0.310208,0.76854 0.416016,1.18164 0.414229,1.6162 0.232128,3.31804 -0.515625,4.8125 -0.545473,1.09017 -1.472544,2.10329 -2.523437,2.75586 -1.185309,0.73599 -2.728286,1.12527 -4.0625,1.02735 v 0.008 c -1.716458,-0.12699 -3.253749,-0.81918 -4.4375,-1.99805 -1.196981,-1.19214 -1.881101,-2.68157 -2.023438,-4.40625 -0.153109,-1.85465 0.53973,-3.81665 1.826172,-5.17187 0.974948,-1.02694 2.050688,-1.66973 3.339844,-1.9961 0.68208,-0.17234 1.131983,-0.22076 1.890625,-0.19922 0.909675,0.0265 1.641726,0.16991 2.40039,0.48633 0.18206,0.0748 0.354361,0.14485 0.382813,0.1543 0.07026,0.0189 1.568614,-1.55874 2.451172,-2.58594 0.461246,-0.53692 0.958113,-1.16902 1.203125,-1.53125 l 0.228515,-0.33789 -0.09766,-0.14062 c -0.1584,-0.23093 -0.789001,-0.86521 -1.371094,-1.37696 -1.48515,-1.30556 -1.881013,-1.71171 -2.363281,-2.41992 -0.463124,-0.68024 -0.672294,-1.2779 -0.705078,-2.01562 -0.03024,-0.67563 0.07701,-1.17483 0.376953,-1.77539 0.387371,-0.77545 0.962385,-1.38628 1.865234,-1.98243 1.32613,-0.87565 3.151465,-1.4039 4.804688,-1.44336 z m 9.636719,15.98829 c -0.165122,0.003 -0.310883,0.0109 -0.421875,0.0254 -0.314268,0.0419 -0.964769,0.18662 -1.03711,0.23047 -0.0325,0.0189 0.168011,0.52531 0.822266,2.07617 0.475578,1.12732 0.908722,2.15499 0.962891,2.28515 0.09377,0.22451 0.106035,0.23747 0.238281,0.27149 0.316724,0.0794 0.634821,0.3868 0.720703,0.69336 0.02192,0.079 0.03326,0.23906 0.02344,0.36718 -0.06006,0.83879 -1.068317,1.23563 -1.691406,0.66602 -0.237619,-0.2177 -0.334199,-0.4328 -0.335937,-0.74805 -0.0011,-0.19804 0.01332,-0.26318 0.09961,-0.43164 l 0.103516,-0.19726 -0.935547,-2.25 c -0.514571,-1.23674 -0.947803,-2.26709 -0.962891,-2.29102 -0.02041,-0.0378 -0.09369,-0.003 -0.308594,0.12695 -1.415931,0.85202 -2.393471,2.23748 -2.753906,3.90625 -0.06576,0.30501 -0.07515,0.44356 -0.07617,1.125 -0.0013,0.86552 0.04117,1.1586 0.263672,1.8379 0.848364,2.59082 3.414973,4.27641 6.125,4.02148 v -0.002 c 1.879967,-0.17651 3.525997,-1.21973 4.517578,-2.86133 1.213501,-2.00909 1.073452,-4.61804 -0.351562,-6.50977 -0.874246,-1.16058 -2.099476,-1.93642 -3.544922,-2.24804 -0.306556,-0.0661 -0.961666,-0.1036 -1.457031,-0.0937 z m -19.009766,0.0137 c -0.681827,10e-4 -0.822312,0.0115 -1.126953,0.0762 -2.361366,0.51058 -4.13444,2.28594 -4.617188,4.62305 -0.321902,1.55864 0.04278,3.24086 0.986329,4.55859 1.221305,1.70566 3.277291,2.64852 5.324218,2.44141 1.004848,-0.10205 1.903533,-0.42273 2.726563,-0.97461 1.382872,-0.92723 2.311831,-2.39594 2.552734,-4.03516 0.07555,-0.51352 0.0486,-1.52044 -0.05273,-1.99023 -0.05949,-0.27667 -0.286521,-1.04305 -0.308594,-1.04297 -0.0038,0 -0.08723,0.0344 -0.1875,0.0703 -0.372132,0.14098 -0.840052,0.10972 -1.220703,-0.0781 -0.08081,-0.0412 -0.341401,-0.23968 -0.580078,-0.44335 -0.238639,-0.20372 -0.447293,-0.37274 -0.462891,-0.375 -0.01474,-0.002 -0.481633,0.58076 -1.035156,1.29687 l -1.005859,1.30274 0.02539,0.13281 c 0.08209,0.43347 -0.0203,0.77651 -0.3125,1.04297 -0.630168,0.57603 -1.636765,0.1692 -1.691406,-0.68164 -0.01965,-0.32089 0.0494,-0.5237 0.259766,-0.75391 0.197707,-0.21657 0.430008,-0.32882 0.703125,-0.33789 l 0.193359,-0.008 1.056641,-1.36914 c 0.581412,-0.75364 1.051068,-1.38612 1.042968,-1.4043 -0.165052,-0.37077 -0.197255,-0.48337 -0.210937,-0.74805 -0.01474,-0.30047 0.03025,-0.52422 0.154297,-0.76562 l 0.0625,-0.12305 -0.185547,-0.0703 c -0.271748,-0.10243 -0.693655,-0.22173 -1.023438,-0.28711 -0.230626,-0.0457 -0.446994,-0.0574 -1.066406,-0.0566 z"
         transform="scale(0.26458333)" />
      <path
         id="circle13767"
         style="vector-effect:none;fill:#3d98b7;fill-opacity:0.521994;stroke:none;stroke-width:1.4989;stroke-linecap:round;stroke-linejoin:round;stroke-miterlimit:4;stroke-dasharray:none;stroke-dashoffset:0;stroke-opacity:1"
         d="m 125.1543,802.00195 a 40.049109,40.049109 0 0 0 -40.048831,40.04883 40.049109,40.049109 0 0 0 40.048831,40.04883 40.049109,40.049109 0 0 0 40.04882,-40.04883 40.049109,40.049109 0 0 0 -40.04882,-40.04883 z m 8.85937,28.08789 v 4.50586 12.875 h -0.008 a 3.2508874,4.3345172 75.000016 0 1 -3.42188,3.59571 3.2508874,4.3345172 75.000016 0 1 -5.02929,-2.01758 3.2508874,4.3345172 75.000016 0 1 3.34765,-4.26172 3.2508874,4.3345172 75.000016 0 1 2.51172,-0.084 V 835.125 l -10.95508,2.23438 v 12.86132 h -0.006 a 3.2508874,4.3345172 75.000016 0 1 -3.42382,3.59766 3.2508874,4.3345172 75.000016 0 1 -5.02735,-2.01953 3.2508874,4.3345172 75.000016 0 1 3.34571,-4.25977 3.2508874,4.3345172 75.000016 0 1 2.51172,-0.0859 v -9.5625 -4.50585 -0.002 h 0.0215 z"
         transform="scale(0.26458333)" />
      <path
         id="circle13769"
         style="vector-effect:none;fill:#3d98b7;fill-opacity:0.521994;stroke:none;stroke-width:0.933615;stroke-linecap:round;stroke-linejoin:round;stroke-miterlimit:4;stroke-dasharray:none;stroke-dashoffset:0;stroke-opacity:1"
         d="m 180.48438,826.32812 a 24.944362,24.945292 0 0 0 -24.94532,24.94532 24.944362,24.945292 0 0 0 24.94532,24.94531 24.944362,24.945292 0 0 0 24.94335,-24.94531 24.944362,24.945292 0 0 0 -24.94335,-24.94532 z m 13.5957,8.79297 c 0.11036,1.9e-4 0.22402,0.0323 0.35351,0.0937 0.14227,0.0673 0.32926,0.24261 0.41602,0.38672 0.30701,0.51247 0.64889,0.87275 1.10547,1.16797 0.85865,0.55537 0.89653,1.00654 0.14258,1.73047 -0.32024,0.3069 -0.44822,0.47757 -0.39844,0.52734 0.0498,0.0499 0.10912,0.0411 0.18555,-0.0156 0.0938,-0.0779 0.13776,-0.0721 0.25976,0.0371 0.21657,0.19616 0.16646,0.60573 -0.0918,0.75 -0.18051,0.10091 -0.21182,0.0991 -0.39843,-0.0449 -0.19295,-0.14627 -0.21623,-0.21593 -0.15625,-0.45899 0.0481,-0.19502 -0.11919,-0.11296 -0.55469,0.26953 -0.3337,0.29254 -0.40933,0.39532 -0.3418,0.46289 0.0676,0.0673 0.11146,0.0658 0.19922,-0.004 0.16811,-0.13985 0.40039,0.0944 0.40039,0.40429 0,0.43189 -0.45428,0.58107 -0.75586,0.24805 -0.0968,-0.10734 -0.10641,-0.16906 -0.0449,-0.2832 0.1581,-0.29556 -0.0779,-0.23973 -0.48242,0.11328 -0.4997,0.4365 -0.5426,0.53547 -0.22656,0.50976 0.19222,-0.0113 0.25731,0.0153 0.34961,0.17969 0.10201,0.1784 0.10157,0.21813 0.002,0.39649 -0.14797,0.2657 -0.45698,0.302 -0.69141,0.082 -0.1175,-0.11036 -0.15103,-0.18644 -0.10156,-0.23633 0.0979,-0.0979 0.0933,-0.25977 -0.008,-0.25977 -0.0443,0 -0.18845,0.0945 -0.32031,0.21094 -0.14654,0.12888 -0.39457,0.24403 -0.63868,0.29883 l -0.40039,0.0898 -4.56836,4.64063 c -2.51242,2.55273 -4.57633,4.67031 -4.58789,4.70508 -0.0117,0.0378 0.21274,0.35325 0.49805,0.70898 0.71054,0.88543 0.94544,1.40843 0.98633,2.1875 0.0799,1.5227 -0.54372,2.66969 -1.95508,3.59375 -0.96716,0.63315 -1.46853,1.07077 -1.95508,1.70899 -0.54998,0.72128 -0.88266,1.4255 -1.12695,2.38085 -0.41459,1.62131 -0.92898,2.74373 -1.70313,3.72266 -0.70993,0.89787 -1.73844,1.5759 -2.81445,1.85547 -0.54578,0.14173 -1.60209,0.19511 -2.16016,0.10742 v -0.01 c -1.14437,-0.18029 -2.36487,-0.67131 -3.41406,-1.37305 -2.23468,-1.49454 -3.97025,-3.77442 -4.54687,-5.9707 -0.23604,-0.89915 -0.26913,-2.18042 -0.0742,-2.90821 0.61399,-2.29277 2.38096,-3.73174 5.59179,-4.55273 1.77357,-0.45358 2.9205,-1.30492 4.03125,-2.99414 0.60531,-0.92051 1.00609,-1.31317 1.69141,-1.6582 0.63833,-0.32126 1.14974,-0.42438 1.92188,-0.38477 0.92468,0.0476 1.33699,0.25611 2.71484,1.36914 l 0.19727,0.1582 0.99414,-0.96679 c 0.5472,-0.53224 2.6576,-2.60336 4.6875,-4.60352 l 3.68945,-3.63672 0.0898,-0.39648 c 0.0539,-0.24114 0.17078,-0.48899 0.29883,-0.63477 0.11573,-0.1319 0.20899,-0.27609 0.20898,-0.32031 0,-0.10054 -0.16187,-0.10618 -0.25976,-0.004 -0.0494,0.0495 -0.12589,0.0107 -0.23633,-0.10156 -0.22027,-0.23433 -0.18363,-0.54344 0.082,-0.69141 0.17881,-0.0998 0.21767,-0.0997 0.39649,0.002 0.16172,0.0922 0.19537,0.15685 0.17968,0.34961 -0.0261,0.31597 0.0735,0.27151 0.50977,-0.22852 0.35316,-0.40422 0.40864,-0.63857 0.11328,-0.48047 -0.11444,0.0612 -0.17617,0.0506 -0.2832,-0.0469 -0.33324,-0.30123 -0.18407,-0.75391 0.24804,-0.75391 0.31034,0 0.54382,0.23014 0.4043,0.39844 -0.0729,0.0881 -0.0735,0.13156 -0.006,0.19922 0.0676,0.0673 0.17019,-0.0115 0.46289,-0.3418 0.382,-0.43555 0.46267,-0.60276 0.26758,-0.55469 -0.24321,0.0601 -0.31272,0.0384 -0.45898,-0.15625 -0.14155,-0.18671 -0.144,-0.21819 -0.043,-0.39843 0.1443,-0.25852 0.55398,-0.30799 0.75,-0.0918 0.1104,0.12246 0.11673,0.16565 0.0391,0.25976 -0.0635,0.0767 -0.069,0.13604 -0.0195,0.18555 0.0498,0.0499 0.21791,-0.0786 0.52539,-0.39844 0.35846,-0.37334 0.58729,-0.53165 0.83008,-0.53125 z m -0.0274,1.39844 c -0.0606,0.0107 -0.15978,0.11246 -0.38476,0.35742 -2.14918,2.33889 -2.44702,2.68466 -2.51172,2.91797 -0.0657,0.23698 -0.0527,0.26999 0.23047,0.5586 0.31631,0.32239 0.47174,0.34622 0.8164,0.1289 0.15383,-0.0968 3.02107,-2.70534 3.05274,-2.77734 0.01,-0.0189 -0.0735,-0.0979 -0.18555,-0.16406 -0.22068,-0.1304 -0.80627,-0.72915 -0.93164,-0.95313 -0.0266,-0.0476 -0.0496,-0.0748 -0.0859,-0.0684 z m -3.61132,4.47852 -3.87305,3.82226 c -2.13009,2.10195 -4.65737,4.58851 -5.61719,5.52735 l -1.74609,1.70703 0.21289,0.22461 c 0.11667,0.12359 0.22961,0.22662 0.25195,0.22851 0.0227,0.002 0.87004,-0.84171 1.88281,-1.875 1.01278,-1.03328 3.49509,-3.55309 5.51758,-5.60156 l 3.67774,-3.72461 -0.15235,-0.1543 z m -13.07227,7.62695 c -0.30665,0.008 -0.61448,0.0864 -0.92969,0.23242 -0.59962,0.2778 -0.85364,0.5261 -1.4414,1.4082 -0.67045,1.00627 -1.50779,1.86798 -2.35157,2.41797 -0.76171,0.49652 -1.38805,0.7605 -2.38671,1.00586 -2.55921,0.62877 -4.04244,1.75172 -4.63868,3.50977 -0.20122,0.59327 -0.18614,1.86882 0.0312,2.62695 0.37164,1.29706 1.08132,2.46803 2.20508,3.63477 0.84055,0.87265 1.41427,1.345 2.22461,1.83203 1.46818,0.88233 2.99515,1.18981 4.2793,0.86133 v 0.002 c 0.74825,-0.19162 1.20373,-0.44872 1.81055,-1.02344 0.84887,-0.80398 1.44397,-1.94246 1.8496,-3.52929 0.11672,-0.4568 0.2969,-1.0401 0.39844,-1.29688 0.55149,-1.39548 1.6051,-2.61985 3.06055,-3.55664 1.01405,-0.65272 1.42526,-1.19585 1.5918,-2.09961 0.14324,-0.7773 -0.11688,-1.43735 -0.9336,-2.36133 l -0.28906,-0.32422 -0.80469,0.80274 -0.80664,0.80078 -0.0117,0.78711 c -0.009,0.69033 -0.0339,0.83656 -0.20508,1.20117 -0.55223,1.17842 -1.87845,1.88514 -3.10937,1.65625 -1.85393,-0.34469 -2.88084,-2.18996 -2.20313,-3.96094 0.22099,-0.57751 0.85234,-1.23883 1.44336,-1.51172 0.40478,-0.1867 0.53752,-0.21163 1.24024,-0.2207 l 0.78515,-0.01 0.80274,-0.80665 0.80273,-0.80664 -0.32422,-0.29492 c -0.74319,-0.67502 -1.4152,-0.99496 -2.08984,-0.97656 z m 0.0312,3.67773 c -0.0487,2.9e-4 -0.0968,0.002 -0.14648,0.006 -0.76414,0.059 -1.34245,0.45213 -1.69141,1.15039 -0.25954,0.51927 -0.2921,1.05024 -0.0996,1.61524 0.15405,0.45218 0.735,1.04529 1.18164,1.20898 0.44195,0.16252 1.23396,0.12326 1.63086,-0.0801 0.44878,-0.23017 0.69829,-0.46842 0.92383,-0.88281 0.73927,-1.35835 -0.28859,-3.02646 -1.79883,-3.01758 z m 0.008,0.27735 c 0.1794,0.002 0.36452,0.0282 0.55078,0.084 0.15761,0.0473 0.44186,0.2264 0.63282,0.39844 0.39382,0.35376 0.57812,0.77747 0.57812,1.33594 0,1.2943 -1.40002,2.12128 -2.58789,1.52929 -0.61676,-0.30727 -0.95117,-0.86868 -0.95117,-1.59961 0,-1.02028 0.80861,-1.75709 1.77734,-1.74804 z m -0.0273,0.83984 c -0.37857,0 -0.6498,0.18236 -0.83594,0.55664 -0.4106,0.82628 0.58799,1.66625 1.37696,1.15821 0.25621,-0.16479 0.40429,-0.44936 0.40429,-0.77735 0,-0.54217 -0.3982,-0.9375 -0.94531,-0.9375 z m -6.1582,2.22656 2.4375,2.43555 2.4375,2.4375 -0.39649,0.4043 c -0.6068,0.61912 -0.94115,0.73719 -1.40625,0.49609 -0.11917,-0.0616 -0.31447,-0.20251 -0.43359,-0.3125 -0.11917,-0.11036 -0.39483,-0.28724 -0.61328,-0.39258 -0.76006,-0.36623 -1.84645,-1.45032 -2.21875,-2.21484 -0.1064,-0.21921 -0.31472,-0.53956 -0.46485,-0.71289 -0.28785,-0.33184 -0.3971,-0.67461 -0.3164,-0.99609 0.0268,-0.10621 0.25716,-0.4091 0.51172,-0.66993 z m -0.0605,1.22266 c -0.142,0.0881 -0.0867,0.223 0.20898,0.51172 0.1589,0.15496 0.28907,0.34988 0.28907,0.43359 0,0.53964 1.73382,2.27344 2.27343,2.27344 0.0834,0 0.27848,0.1307 0.4336,0.28906 0.31041,0.31786 0.34325,0.33213 0.45703,0.19532 0.0601,-0.0722 -0.34159,-0.5143 -1.75195,-1.92383 -1.07434,-1.07373 -1.86296,-1.80848 -1.91016,-1.7793 z"
         transform="scale(0.26458333)" />
      <path
         id="circle13773"
         style="vector-effect:none;fill:#3b97b6;fill-opacity:0.521569;stroke:none;stroke-width:1.25034;stroke-linecap:round;stroke-linejoin:round;stroke-miterlimit:4;stroke-dasharray:none;stroke-dashoffset:0;stroke-opacity:1"
         d="m 68.755859,796.01367 a 33.407668,33.407668 0 0 0 -33.40625,33.40625 33.407668,33.407668 0 0 0 33.40625,33.4082 33.407668,33.407668 0 0 0 33.408201,-33.4082 33.407668,33.407668 0 0 0 -33.408201,-33.40625 z m 12.095703,18.84571 c 0.335808,0.004 0.669369,0.0423 0.914063,0.11523 0.650101,0.20069 1.056198,0.44573 1.539063,0.92773 0.348661,0.34848 0.479979,0.5241 0.65039,0.8711 0.596013,1.21375 0.495569,2.58878 -0.267578,3.6582 -0.463158,0.64902 -1.243707,1.19161 -1.980469,1.37695 -0.395558,0.0998 -1.027844,0.1352 -1.396484,0.0781 v 0.006 c -1.411317,-0.21808 -2.554777,-1.23859 -2.929688,-2.61328 -0.122456,-0.44958 -0.120051,-1.39148 0.0039,-1.81055 0.373039,-1.25443 1.305863,-2.17693 2.539062,-2.51172 0.254194,-0.069 0.591927,-0.10139 0.927734,-0.0977 z M 68.064453,815 c 0.200936,0.0119 0.398318,0.0543 0.552735,0.125 0.291817,0.13342 6.959752,4.9134 7.255859,5.20117 0.12102,0.11792 0.292708,0.36222 0.382812,0.54492 0.152731,0.30955 0.164063,0.36755 0.164063,0.8711 0,0.50672 -0.0107,0.55911 -0.167969,0.88086 -0.187389,0.38067 -0.403778,0.58713 -0.830078,0.79297 -0.228359,0.11036 -0.374516,0.14043 -0.773437,0.1582 -0.51828,0.0189 -0.889223,-0.0504 -1.28125,-0.25 -0.104429,-0.0533 -1.311898,-1.04137 -2.683594,-2.19727 l -2.494141,-2.10156 -0.105469,0.12695 c -0.05866,0.0707 -0.945627,1.06258 -1.970703,2.20313 -1.460462,1.62504 -1.91095,2.09444 -2.083984,2.17578 -0.281839,0.13266 -0.735124,0.13632 -1.015625,0.008 -0.289247,-0.1319 -0.517467,-0.33737 -0.679688,-0.61328 -0.194419,-0.33109 -0.197998,-0.80052 -0.0078,-1.13281 0.07234,-0.12662 1.090579,-1.58954 2.261719,-3.25 2.284146,-3.23841 2.357323,-3.32721 2.896484,-3.48633 0.173764,-0.0512 0.379142,-0.0685 0.580078,-0.0566 z m 9.150391,6.20508 0.425781,0.43554 c 0.488908,0.50242 0.595703,0.73427 0.595703,1.28907 0,0.63757 -0.298722,1.24947 -0.896484,1.84179 -0.232781,0.23093 -1.404256,1.10567 -3.351563,2.50391 -1.646366,1.1822 -2.992187,2.17029 -2.992187,2.19531 0,0.0265 0.955116,1.11622 2.123047,2.42578 2.279754,2.5561 2.367744,2.67504 2.43164,3.27149 0.08818,0.82341 -0.361029,1.75407 -1.007812,2.08398 -0.106281,0.0541 -2.249395,0.72047 -4.761719,1.48243 -4.834363,1.46626 -5.045107,1.51984 -5.46875,1.36132 -0.275603,-0.10318 -0.536344,-0.27706 -0.691406,-0.46093 -0.196309,-0.23245 -0.415053,-0.71664 -0.455078,-1.00782 -0.06973,-0.50604 0.167103,-1.10734 0.548828,-1.39843 0.09592,-0.0733 1.577649,-0.68909 3.292968,-1.36914 1.715286,-0.68002 3.136143,-1.25172 3.158204,-1.27149 0.0223,-0.0151 -0.334853,-0.3228 -0.792969,-0.67187 -3.178401,-2.4214 -3.978643,-3.04759 -4.154297,-3.25977 -0.247181,-0.29896 -0.469735,-0.75933 -0.546875,-1.13086 -0.123213,-0.59444 0.02263,-1.37508 0.351563,-1.88086 0.213996,-0.3292 5.487451,-5.65798 5.568359,-5.62695 0.03666,0.0151 0.542496,0.44789 1.123047,0.96289 1.167235,1.03532 1.431022,1.22485 1.910156,1.37305 1.011027,0.31294 2.025101,0.0702 2.767578,-0.66016 0.565981,-0.55691 0.819832,-1.17296 0.822266,-2 z m 0.03516,4.88867 c 0.0223,8.3e-4 0.223959,0.33609 0.449219,0.74609 0.225071,0.41001 0.432791,0.75423 0.460937,0.76368 0.02948,0.0113 1.450622,0.0885 3.16211,0.17578 3.454359,0.17574 3.37934,0.16419 3.710937,0.54101 0.230211,0.26155 0.315927,0.51247 0.314453,0.92383 -0.0024,0.64494 -0.405414,1.13667 -1.003906,1.22266 -0.228737,0.034 -7.019716,0.3853 -7.376953,0.38281 -0.132057,-9.1e-4 -0.362643,-0.0447 -0.511719,-0.0957 -0.149064,-0.0514 -0.354813,-0.16257 -0.458984,-0.2461 -0.223937,-0.1799 -1.774058,-2.36911 -1.714844,-2.42187 0.112517,-0.10016 2.933888,-1.99344 2.96875,-1.99219 z m -13.599609,3.02734 c 0.0223,-0.008 0.05506,0.13796 0.07422,0.32618 0.04244,0.41249 0.228984,0.97057 0.453125,1.34765 0.265626,0.44701 0.691624,0.85834 1.566407,1.51367 0.450799,0.33752 0.820939,0.6304 0.822265,0.65039 0.0013,0.0151 -1.407054,1.31976 -3.130859,2.88868 -1.723771,1.56892 -4.347996,3.95849 -5.832031,5.31054 -2.932804,2.67198 -3.059585,2.76981 -3.646485,2.81641 -0.174501,0.0151 -0.407953,-0.003 -0.541015,-0.041 -0.493372,-0.13946 -0.891308,-0.46184 -1.134766,-0.91992 -0.09294,-0.17423 -0.114894,-0.2987 -0.115234,-0.65039 -5.56e-4,-0.39058 0.01435,-0.46219 0.152343,-0.70117 0.08447,-0.14627 1.237625,-1.45818 2.5625,-2.91602 1.324914,-1.4578 3.831753,-4.21709 5.570313,-6.13086 1.73853,-1.91368 3.177932,-3.48609 3.199219,-3.49414 z"
         transform="scale(0.26458333)" />
      <path
         id="circle13763"
         style="vector-effect:none;fill:#3d98b7;fill-opacity:0.521994;stroke:none;stroke-width:0.921899;stroke-linecap:round;stroke-linejoin:round;stroke-miterlimit:4;stroke-dasharray:none;stroke-dashoffset:0;stroke-opacity:1"
         d="m 174.25195,785.90039 a 24.632278,24.632278 0 0 0 -24.63281,24.63281 24.632278,24.632278 0 0 0 24.63281,24.63282 24.632278,24.632278 0 0 0 24.63086,-24.63282 24.632278,24.632278 0 0 0 -24.63086,-24.63281 z m -5.61328,13.53906 h 5.61328 5.61328 l 0.52344,0.27735 c 0.28853,0.15382 0.65189,0.41398 0.80664,0.57812 0.2527,0.26797 0.78619,1.43654 1.125,2.4668 l 0.125,0.38476 2.33008,0.0371 2.33008,0.0391 0.70703,0.33398 c 0.83489,0.39557 1.60933,1.12987 1.97266,1.86914 l 0.25781,0.52344 v 6.45312 6.45313 l -0.2793,0.52734 c -0.3222,0.61025 -1.129,1.40191 -1.75,1.71875 -1.07492,0.54841 -0.71055,0.5348 -13.75781,0.52539 -10.11735,-0.008 -12.22595,-0.0376 -12.74219,-0.1582 v -0.006 c -1.21771,-0.29518 -2.3429,-1.18276 -2.82617,-2.22851 -0.22447,-0.48564 -0.22656,-0.55379 -0.22656,-6.8379 v -6.34765 l 0.27929,-0.59766 c 0.36042,-0.76887 1.03602,-1.44085 1.83789,-1.82617 l 0.63672,-0.30469 0.0391,-0.87304 c 0.038,-0.83324 0.0562,-0.88983 0.38281,-1.18165 0.18845,-0.16856 0.45386,-0.30664 0.58984,-0.30664 h 3.14844 c 0.33997,0 0.69345,0.29688 0.89648,0.75 l 0.18164,0.40625 0.29102,-0.74023 c 0.35868,-0.91419 0.66608,-1.28758 1.35742,-1.65234 z m 3.50586,0.89258 c -4.32286,0.002 -4.01893,0.12597 -4.8125,2.09375 -0.28751,0.71286 -0.57437,1.34761 -0.63672,1.41016 -0.0707,0.071 -0.9904,0.13836 -2.44336,0.17578 -2.06535,0.0533 -2.39657,0.085 -2.92187,0.29101 -0.7888,0.30804 -1.47207,0.92619 -1.75586,1.58594 -0.22617,0.52573 -0.22851,0.57006 -0.19922,6.64063 0.0272,5.61161 0.0445,6.13756 0.21484,6.44922 0.40622,0.7432 1.27482,1.38791 2.14844,1.59375 0.21732,0.051 5.85031,0.0971 12.51953,0.10351 10.52751,0.008 12.19719,-0.008 12.66016,-0.14844 0.76799,-0.22828 1.49289,-0.75698 1.86133,-1.35546 l 0.31836,-0.51563 0.0312,-6.09375 c 0.0223,-4.30798 -0.002,-6.21448 -0.0859,-6.50195 -0.17257,-0.59188 -0.93112,-1.34652 -1.70508,-1.69922 -0.64358,-0.29329 -0.68985,-0.2994 -2.96094,-0.33985 -1.26957,-0.0189 -2.38506,-0.081 -2.47851,-0.13086 -0.0934,-0.0491 -0.39547,-0.6699 -0.67188,-1.3789 -0.61645,-1.58109 -0.69037,-1.69785 -1.24609,-1.9668 -0.42971,-0.20825 -0.61441,-0.21516 -5.68359,-0.21289 -0.82308,3.6e-4 -1.5348,-3.5e-4 -2.15235,0 z m 2.0918,0.83594 c 1.81721,5.5e-4 3.64179,0.0389 3.94531,0.11523 0.63005,0.15874 1.13112,0.65249 1.4043,1.38477 0.27167,0.72824 0.27923,0.92918 0.0547,1.40234 -0.31974,0.67374 -0.26379,0.66602 -5.42773,0.66602 h -4.66797 l -0.31445,-0.26563 c -0.50157,-0.42198 -0.58416,-0.83014 -0.33203,-1.64648 0.24502,-0.79329 0.77215,-1.35823 1.4375,-1.54297 0.27457,-0.076 2.08318,-0.11383 3.90039,-0.11328 z m -10.8418,0.625 c -0.49476,0.002 -0.92281,0.0243 -1.04297,0.0703 -0.12533,0.048 -0.16601,0.21427 -0.16601,0.68164 v 0.61719 h 1.625 1.62695 v -0.55664 c 0,-0.30577 -0.0558,-0.6124 -0.125,-0.68164 -0.0828,-0.0827 -1.09337,-0.13383 -1.91797,-0.13086 z m 8.89258,0.33398 c -1.56874,8.9e-4 -1.75187,0.0438 -1.98438,0.18555 -0.34423,0.21203 -0.71358,1.02918 -0.59961,1.32617 0.0502,0.13115 0.71143,0.15235 4.5625,0.15235 3.95566,0 4.51203,-0.0173 4.56641,-0.16016 0.0841,-0.21959 -0.23689,-1.02768 -0.50391,-1.26953 -0.20224,-0.18293 -0.47138,-0.19853 -3.95703,-0.22461 -0.88401,-0.007 -1.56107,-0.0101 -2.08398,-0.01 z m -10.18945,3.39649 h 2.02929 2.02735 l 0.44336,0.31445 c 0.63902,0.4529 0.83398,0.88036 0.83398,1.83594 0,0.9555 -0.19515,1.383 -0.83398,1.83594 l -0.44336,0.31445 -1.80078,0.0195 c -0.99058,0.0113 -1.95387,-0.0161 -2.14063,-0.0664 v 0.004 c -0.45553,-0.11452 -1.03738,-0.57278 -1.25195,-0.98437 -0.11513,-0.22073 -0.17865,-0.60537 -0.1836,-1.12305 -0.009,-0.94095 0.18833,-1.35406 0.8711,-1.83399 z m 23.77734,0.36718 c 0.9446,6.9e-4 1.5633,0.65413 1.46289,1.54493 -0.10741,0.95278 -1.13146,1.53173 -2.01758,1.14062 -0.42847,-0.18935 -0.68289,-0.4977 -0.78515,-0.95117 -0.1208,-0.53567 0.0463,-1.03235 0.47656,-1.41016 0.30032,-0.26419 0.45994,-0.32459 0.86328,-0.32422 z m -23.47656,0.5254 -0.34375,0.30468 c -0.31676,0.28271 -0.3418,0.35543 -0.3418,0.95313 0,0.59777 0.0252,0.67023 0.3418,0.95312 l 0.34375,0.30664 h 1.71484 c 1.57149,0 1.73929,-0.0161 1.99024,-0.21679 v 0.002 c 0.60139,-0.47305 0.60139,-1.61488 0,-2.08789 -0.251,-0.19767 -0.41875,-0.21484 -1.99024,-0.21484 z m 12.72851,0.01 c 0.57672,6.6e-4 0.85665,0.0527 1.34766,0.19922 2.69306,0.81797 4.46018,2.81474 4.91211,5.55078 0.21192,1.28289 0.009,2.48671 -0.65234,3.88086 -0.3348,0.70534 -0.58807,1.0508 -1.27344,1.73633 -1.33658,1.33689 -2.67536,1.93194 -4.51758,2.00391 -0.58215,0.0189 -1.26772,-0.003 -1.52344,-0.0566 v -0.002 c -1.52924,-0.32353 -2.93945,-1.11122 -3.88476,-2.17187 -0.63004,-0.70685 -1.27323,-1.91909 -1.52539,-2.875 -0.24579,-0.93154 -0.18046,-2.68871 0.13671,-3.66016 0.64495,-1.9759 2.34014,-3.67031 4.32032,-4.32031 0.49221,-0.16214 1.0404,-0.23627 1.96679,-0.26953 0.2769,-0.009 0.50113,-0.0159 0.69336,-0.0156 z m 10.74219,0.3418 c -0.34274,0.0372 -0.62651,0.48337 -0.33203,0.80859 0.20666,0.22866 0.57121,0.26673 0.75977,0.0781 v -0.002 c 0.19086,-0.19086 0.15132,-0.55268 -0.084,-0.76562 -0.10834,-0.0981 -0.2295,-0.13155 -0.34375,-0.11914 z m -11.25586,0.49804 c -0.34215,-10e-4 -0.67851,0.0478 -1.14844,0.14649 -2.16011,0.45354 -3.9735,2.14231 -4.50976,4.20117 -0.19744,0.75791 -0.20629,2.22837 -0.0176,2.9336 0.53415,1.99937 2.21284,3.64784 4.26562,4.18945 0.77297,0.20371 2.07814,0.20206 2.86915,-0.002 1.98916,-0.51323 3.55326,-2.00627 4.21875,-4.0293 0.28161,-0.85599 0.25612,-2.46224 -0.0527,-3.35742 -0.69805,-2.02326 -2.36657,-3.49876 -4.44336,-3.92774 -0.49295,-0.10186 -0.83949,-0.15321 -1.18164,-0.1543 z m -0.0156,2.01758 c 1.04352,-0.006 2.10052,0.41511 2.9082,1.29883 1.54253,1.68779 1.22355,4.38992 -0.66602,5.64453 -0.31343,0.20788 -0.7945,0.4463 -1.07031,0.5293 -0.65823,0.19842 -1.76646,0.18009 -2.35742,-0.041 v 0.002 c -0.76145,-0.28309 -1.07842,-0.49274 -1.61133,-1.0625 -0.77597,-0.82957 -0.95898,-1.32292 -0.95898,-2.57618 0,-0.99632 0.0168,-1.08197 0.35937,-1.71289 0.73536,-1.35635 2.05481,-2.07368 3.39649,-2.08203 z m 0.0664,0.92774 c -0.7315,-0.0134 -1.47487,0.24826 -2.0625,0.83008 -0.66339,0.6568 -0.8164,1.04811 -0.8164,2.09765 0,0.81759 0.028,0.94643 0.31445,1.40625 0.60419,0.97161 1.39744,1.40595 2.57227,1.41211 0.50026,0.003 0.82025,-0.0611 1.20507,-0.24023 1.28469,-0.59951 1.96594,-2.04163 1.58399,-3.35547 -0.39008,-1.34181 -1.57771,-2.12806 -2.79688,-2.15039 z m -0.15234,1.03515 c 0.37618,-0.014 0.6404,0.15675 0.54101,0.55274 -0.0455,0.18104 -0.19061,0.28288 -0.5625,0.39453 -0.50803,0.15269 -0.52815,0.1753 -0.97461,1.14648 -0.0938,0.20372 -0.43736,0.25419 -0.60351,0.0879 -0.21086,-0.21089 -0.14924,-0.82274 0.13086,-1.30078 0.31642,-0.53991 0.98509,-0.86283 1.46875,-0.88086 z"
         transform="scale(0.26458333)" />
    </g>
  </g>
</svg>
